<svg xmlns="http://www.w3.org/2000/svg" viewBox="0 0 380 416">
  <path fill="#b7d1df" d="M323 0H0v48h104.4v97.5H83.9c-23.3 0-41.9 6.7-55.8 20-13.8 13.3-20.8 31-20.8 53s6.9 39.7 20.8 53c13.8 13.3 32.4 20 55.8 20 22.7 0 41-6.7 55-20s21-31 21-53v-24h68V315h55V48H323ZM104.4 218.5c0 7.3-1.8 13.2-5.5 17.8-3.7 4.5-8.7 6.8-15 6.8-5.7 0-10.7-2.4-15-7.2-4.3-4.8-6.5-10.6-6.5-17.2 0-7.3 1.9-13.2 5.8-17.5 3.8-4.3 9.1-6.5 15.8-6.5h20.5v23.8h-.1zM159.9 48h68v97.5h-68V48z"/>
  <path fill="#5a8ec5" d="M379.9 218.5c0-22-6.9-39.7-20.8-53-13.8-13.3-32.4-20-55.8-20-22.7 0-41 6.7-55 20s-21 31-21 53V416c18.5-.2 37-.4 55.5-.5v-124h20.5c23.3 0 41.9-6.7 55.8-20 13.9-13.4 20.8-31 20.8-53zM319.1 236c-3.8 4.3-9.1 6.5-15.8 6.5h-20.5v-24c0-7.3 1.8-13.2 5.5-17.8 3.7-4.5 8.7-6.8 15-6.8 5.7 0 10.7 2.4 15 7.2 4.3 4.8 6.5 10.6 6.5 17.2.1 7.5-1.8 13.3-5.7 17.7z"/>
</svg>