<svg width="380" height="416" xmlns="http://www.w3.org/2000/svg">
  <path fill="#b7d1df" d="M 323 0 H 0 v 48 h 104.4 v 97.5 H 83.9 c -23.3 0 -41.9 6.7 -55.8 20 c -13.8 13.3 -20.8 31 -20.8 53 s 6.9 39.7 20.8 53 c 13.8 13.3 32.4 20 55.8 20 c 22.7 0 41 -6.7 55 -20 s 21 -31 21 -53 v -24 h 68 V 315 h 55 V 48 H 323 Z M 104.4 218.5 c 0 7.3 -1.8 13.2 -5.5 17.8 c -3.7 4.5 -8.7 6.8 -15 6.8 c -5.7 0 -10.7 -2.4 -15 -7.2 c -4.3 -4.8 -6.5 -10.6 -6.5 -17.2 c 0 -7.3 1.9 -13.2 5.8 -17.5 c 3.8 -4.3 9.1 -6.5 15.8 -6.5 h 20.5 v 23.8 h -0.1 z M 159.9 48 h 68 v 97.5 h -68 V 48 z"/>
  <path fill="#5a8ec5" d="M379.9 218.5c0-22-6.9-39.7-20.8-53-13.8-13.3-32.4-20-55.8-20-22.7 0-41 6.7-55 20s-21 31-21 53V416c18.5-.2 37-.4 55.5-.5v-124h20.5c23.3 0 41.9-6.7 55.8-20 13.9-13.4 20.8-31 20.8-53zM319.1 236c-3.8 4.3-9.1 6.5-15.8 6.5h-20.5v-24c0-7.3 1.8-13.2 5.5-17.8 3.7-4.5 8.7-6.8 15-6.8 5.7 0 10.7 2.4 15 7.2 4.3 4.8 6.5 10.6 6.5 17.2.1 7.5-1.8 13.3-5.7 17.7z"/>
</svg>